<svg width="32" height="32" viewBox="0 0 32 32" fill="none" xmlns="http://www.w3.org/2000/svg">
<path d="M27.2332 8.84735L15.0398 21.0407C14.8452 21.236 14.5892 21.3334 14.3332 21.3334C14.0772 21.3334 13.8212 21.236 13.6258 21.0407L10.2925 17.7074C9.90184 17.3167 9.90184 16.684 10.2925 16.2934C10.6832 15.9027 11.3158 15.9027 11.7065 16.2934L14.3325 18.9194L26.0192 7.23269C23.5738 4.44069 19.9938 2.66669 15.9998 2.66669C8.64784 2.66669 2.6665 8.64802 2.6665 16C2.6665 23.352 8.64784 29.3334 15.9998 29.3334C23.3518 29.3334 29.3332 23.352 29.3332 16C29.3332 13.3674 28.5558 10.9167 27.2332 8.84735Z" fill="#0F9E7F"/>
</svg>
