<svg width="32" height="32" viewBox="0 0 32 32" fill="none" xmlns="http://www.w3.org/2000/svg">
<path d="M15.9998 2.66669C8.64784 2.66669 2.6665 8.64802 2.6665 16C2.6665 23.352 8.64784 29.3334 15.9998 29.3334C23.3518 29.3334 29.3332 23.352 29.3332 16C29.3332 13.8607 28.8145 11.8448 27.9152 10.0508L26.4191 11.5469C27.0058 12.9142 27.3332 14.4194 27.3332 16C27.3332 22.2494 22.2492 27.3334 15.9998 27.3334C9.7505 27.3334 4.6665 22.2494 4.6665 16C4.6665 9.75069 9.7505 4.66669 15.9998 4.66669C18.9638 4.66669 21.6569 5.81949 23.6782 7.68882L25.0923 6.27476C22.7076 4.04343 19.5152 2.66669 15.9998 2.66669ZM26.3136 7.32424C26.0539 7.33181 25.8074 7.44015 25.6261 7.62632L14.3332 18.9193L11.7069 16.293C11.6147 16.197 11.5044 16.1204 11.3822 16.0676C11.2601 16.0148 11.1287 15.9869 10.9956 15.9856C10.8626 15.9842 10.7306 16.0094 10.6074 16.0597C10.4843 16.11 10.3724 16.1844 10.2783 16.2785C10.1842 16.3725 10.1098 16.4844 10.0596 16.6076C10.0093 16.7308 9.98406 16.8628 9.98541 16.9958C9.98676 17.1288 10.0146 17.2603 10.0674 17.3824C10.1202 17.5045 10.1968 17.6149 10.2928 17.7071L13.6261 21.0404C13.8137 21.2279 14.068 21.3332 14.3332 21.3332C14.5983 21.3332 14.8527 21.2279 15.0402 21.0404L27.0402 9.04039C27.1845 8.89988 27.283 8.7191 27.3228 8.52169C27.3626 8.32429 27.3419 8.11946 27.2634 7.93402C27.1849 7.74857 27.0522 7.59115 26.8828 7.48235C26.7133 7.37355 26.5149 7.31844 26.3136 7.32424Z" fill="#BDC3C7"/>
</svg>
