<svg width="28" height="28" viewBox="0 0 28 28" fill="none" xmlns="http://www.w3.org/2000/svg">
<path d="M21.2917 3.5H6.70833C4.93908 3.5 3.5 4.93908 3.5 6.70833V21.2917C3.5 23.0609 4.93908 24.5 6.70833 24.5H21.2917C23.0609 24.5 24.5 23.0609 24.5 21.2917V6.70833C24.5 4.93908 23.0609 3.5 21.2917 3.5ZM18.9583 14.875H14.875V18.9583C14.875 19.4419 14.4836 19.8333 14 19.8333C13.5164 19.8333 13.125 19.4419 13.125 18.9583V14.875H9.04167C8.55808 14.875 8.16667 14.4836 8.16667 14C8.16667 13.5164 8.55808 13.125 9.04167 13.125H13.125V9.04167C13.125 8.55808 13.5164 8.16667 14 8.16667C14.4836 8.16667 14.875 8.55808 14.875 9.04167V13.125H18.9583C19.4419 13.125 19.8333 13.5164 19.8333 14C19.8333 14.4836 19.4419 14.875 18.9583 14.875Z" fill="#86ABA1"/>
</svg>
