<svg width="28" height="28" viewBox="0 0 28 28" fill="none" xmlns="http://www.w3.org/2000/svg">
<path d="M21.2917 3.5H6.70833C4.93967 3.5 3.5 4.93908 3.5 6.70833V21.2917C3.5 23.0609 4.93967 24.5 6.70833 24.5H21.2917C23.0603 24.5 24.5 23.0609 24.5 21.2917V6.70833C24.5 4.93908 23.0603 3.5 21.2917 3.5ZM20.7439 19.5061C21.0858 19.8473 21.0858 20.4021 20.7439 20.7433C20.573 20.9148 20.349 21 20.125 21C19.901 21 19.677 20.9148 19.5061 20.7439L18.0833 19.3206L16.6606 20.7433C16.4897 20.9148 16.2657 21 16.0417 21C15.8177 21 15.5937 20.9148 15.4227 20.7439C15.0809 20.4027 15.0809 19.8479 15.4227 19.5067L16.8461 18.0833L15.4233 16.6606C15.0815 16.3193 15.0815 15.7646 15.4233 15.4233C15.7652 15.0815 16.3188 15.0815 16.6606 15.4233L18.0833 16.8461L19.5061 15.4233C19.8479 15.0815 20.4015 15.0815 20.7433 15.4233C21.0852 15.7646 21.0852 16.3193 20.7433 16.6606L19.3206 18.0833L20.7439 19.5061Z" fill="#C05555"/>
</svg>
